<svg xmlns="http://www.w3.org/2000/svg" width="22" height="17.727" viewBox="0 0 22 17.727"><defs><style>.a{fill:#fff;}</style></defs><path class="a" d="M22,2.105a9.408,9.408,0,0,1-2.261,2.313q.014.194.014.582a12.614,12.614,0,0,1-.53,3.594,12.94,12.94,0,0,1-1.612,3.441,13.562,13.562,0,0,1-2.576,2.915,11.491,11.491,0,0,1-3.6,2.022,13.276,13.276,0,0,1-4.509.755A12.594,12.594,0,0,1,0,15.719a9.726,9.726,0,0,0,1.089.055,8.873,8.873,0,0,0,5.6-1.911,4.419,4.419,0,0,1-2.624-.893,4.377,4.377,0,0,1-1.591-2.209,5.757,5.757,0,0,0,.852.069,4.7,4.7,0,0,0,1.187-.152A4.442,4.442,0,0,1,1.919,9.133,4.3,4.3,0,0,1,.893,6.287V6.232A4.5,4.5,0,0,0,2.931,6.8,4.481,4.481,0,0,1,1.466,5.207,4.331,4.331,0,0,1,.921,3.074,4.356,4.356,0,0,1,1.536.817a12.762,12.762,0,0,0,4.111,3.3A12.642,12.642,0,0,0,10.832,5.5a4.931,4.931,0,0,1-.112-1.025A4.294,4.294,0,0,1,12.04,1.309,4.363,4.363,0,0,1,15.23,0a4.363,4.363,0,0,1,3.294,1.413A8.884,8.884,0,0,0,21.386.332,4.349,4.349,0,0,1,19.4,2.8,9.041,9.041,0,0,0,22,2.105Z"/></svg>