<svg xmlns="http://www.w3.org/2000/svg" width="24" height="19.696" viewBox="0 0 24 19.696"><defs><style>.a{fill:#1a1a1a;}</style></defs><path class="a" d="M24,2.339a10.366,10.366,0,0,1-2.467,2.57q.015.215.015.646a14.256,14.256,0,0,1-.579,3.993,14.5,14.5,0,0,1-1.759,3.824,14.985,14.985,0,0,1-2.81,3.239,12.477,12.477,0,0,1-3.929,2.247,14.245,14.245,0,0,1-4.919.839A13.556,13.556,0,0,1,0,17.465a10.42,10.42,0,0,0,1.188.062A9.567,9.567,0,0,0,7.294,15.4a4.764,4.764,0,0,1-2.863-.993A4.86,4.86,0,0,1,2.7,11.956a6.168,6.168,0,0,0,.929.077,5.039,5.039,0,0,0,1.294-.169,4.831,4.831,0,0,1-2.825-1.716A4.833,4.833,0,0,1,.975,6.986V6.924A4.842,4.842,0,0,0,3.2,7.555a4.946,4.946,0,0,1-1.6-1.77,4.883,4.883,0,0,1-.594-2.37A4.909,4.909,0,0,1,1.675.908,13.973,13.973,0,0,0,6.16,4.578a13.6,13.6,0,0,0,5.657,1.531A5.576,5.576,0,0,1,11.7,4.97a4.815,4.815,0,0,1,1.439-3.516,4.9,4.9,0,0,1,7.074.115A9.584,9.584,0,0,0,23.33.369a4.817,4.817,0,0,1-2.162,2.739A9.721,9.721,0,0,0,24,2.339Z"/></svg>