<?xml version="1.0" encoding="utf-8"?>
<!-- Generator: Adobe Illustrator 25.1.0, SVG Export Plug-In . SVG Version: 6.00 Build 0)  -->
<svg version="1.1" id="Layer_1" xmlns="http://www.w3.org/2000/svg" xmlns:xlink="http://www.w3.org/1999/xlink" x="0px" y="0px"
	 viewBox="0 0 200 57.8" style="enable-background:new 0 0 200 57.8;" xml:space="preserve">
<style type="text/css">
	.st0{fill-rule:evenodd;clip-rule:evenodd;fill:#FFFFFE;}
	.st1{fill-rule:evenodd;clip-rule:evenodd;fill:#4AA241;}
	.st2{fill-rule:evenodd;clip-rule:evenodd;}
</style>
<g>
	<path class="st0" d="M176.4,8.1c-0.2,1-0.2,3.3,1.1,3c1.8-0.4,1.6-0.6,2.6-1.5c0.7-0.6,2.3,1,0,3.6c-1.2,1.4-1.5,1.8-0.9,2.6
		c0.7,0.8,2.5,1.2,2.5,3.7c0,2.3,2.9,0.6,3.6-0.3c0.7-0.9,1.2-4.8,3.2-1.9c1.4,2-1,6.4,1.9,6.8c2.4,0.4,2.8,3,2.8,3.7l0,0.2
		c6-5.8,2-13.2,1.9-14.1c-0.3-1.6,0.6-1,1.7,0c-4.4-8.3-13.2-14-23.2-14c-1.7,0-3.4,0.2-5.1,0.5C173.7,0.6,177.4,2.7,176.4,8.1
		 M190.2,39.9c-1.6,0.6-2.3-0.4-3.5,0.8c-1.3,1.3,2.9,3.8-4.9,2c-3.5-0.8-3,3-6.9,1c-1.1-2.6-1.1-4.1-0.2-5.7
		c1.1-1.9,1.5-1.2,0.8-3.3c-0.3-0.8,0-1.2,0.4-2.3c0.4-1.1-0.1-2.7-1.7-2.6c-2.1,0.1-1.9,1.1-3.2,1.9c-0.9,0.6-2.3-2.4,0.7-5.1
		c1.7-1.5,2.1-1.9,1.5-3c-0.6-1.2-1.6-0.7-2.1-2.1c-0.3-1,0.2-3-1.3-3.4c-1.7-0.5-3,1.9-4,2.8c-1.1,1.1-2.4,3.1-3,1.5
		c-1.1-2.8,3.9-6.9,0.8-8c-2.9-1-3.8-4.1-3.8-4.1c-7.9,5.9-4.2,11-4.8,11.9c-0.7,0.9-1.9-1.1-3-0.1c-0.8,0.7-1.6,5.5,3.5,8.6
		c1.9,1.2,2.5,1.4,2.1,2.1c-0.4,0.6-1.9,0.1-1.9,1.4c0.1,2.5,4.1,1.8,4.9,5c0.7,3,13.3,4.8,13.3,4.8c0,0,0.1,0,0.2,0l0.6,0.3
		c0.2,0.8,0.9,2.6,2.7,3.5c2.9,1.5-0.2,0.8,0.2,1.8c0.2,0.5,2.3,1.9,5.9,1.1c5.1-2.1,9.3-5.8,12.2-10.4
		C192.8,37.9,192.6,38.4,190.2,39.9"/>
	<path class="st1" d="M174.3,44c-0.1,0-0.2-0.1-0.2,0c0,0-12.6-1.8-13.3-4.8c-0.7-3.2-4.8-2.4-4.9-5c0-1.3,1.5-0.8,1.9-1.4
		c0.5-0.7-0.2-1-2.1-2.1c-5.1-3-4.3-7.8-3.5-8.6c1.1-1,2.3,1.1,3,0.1c0.7-0.9-3.1-6.1,4.8-11.9c0,0,0.9,3,3.8,4.1
		c3.1,1.1-1.9,5.2-0.8,8c0.6,1.6,1.8-0.4,3-1.5c1-0.9,2.3-3.3,4-2.8c1.5,0.5,1,2.4,1.3,3.4c0.4,1.3,1.5,0.9,2.1,2.1
		c0.6,1.1,0.2,1.6-1.5,3c-3.1,2.7-1.6,5.6-0.7,5.1c1.3-0.9,1.1-1.8,3.2-1.9c1.6-0.1,2.1,1.5,1.7,2.6c-0.4,1.1-0.7,1.5-0.4,2.3
		c0.7,2.1,0.3,1.4-0.8,3.3c-0.9,1.6-0.9,3.1,0.2,5.7c3.9,2,3.4-1.8,6.9-1c7.8,1.8,3.5-0.8,4.9-2c1.2-1.2,1.9-0.1,3.5-0.8
		c2.4-1.5,2.6-2,5.8,0.5c2.5-4,4-8.8,4-14c0-4.5-1.1-8.7-3.1-12.3c-1.1-1-2-1.7-1.7,0c0.1,0.9,4.2,8.4-1.9,14.1l0-0.2
		c-0.1-0.7-0.5-3.4-2.8-3.7c-2.9-0.4-0.5-4.8-1.9-6.8c-2-2.9-2.5,1.1-3.2,1.9c-0.7,0.9-3.6,2.5-3.6,0.3c0-2.6-1.8-2.9-2.5-3.7
		c-0.7-0.8-0.4-1.2,0.9-2.6c2.3-2.6,0.6-4.2,0-3.6c-1,0.9-0.8,1.1-2.6,1.5c-1.4,0.3-1.3-2.1-1.1-3c1-5.5-2.7-7.5-7.9-7.6
		c-12.1,2.4-21.3,13.1-21.3,25.9c0,14.6,11.8,26.4,26.4,26.4c3.6,0,7-0.7,10.1-2c-3.7,0.9-5.7-0.5-5.9-1.1c-0.4-1.1,2.7-0.3-0.2-1.8
		c-1.8-0.9-2.5-2.7-2.7-3.5L174.3,44"/>
	<path class="st1" d="M175.8,44.8c0,0-17.3-6.7-17.9-23.8C157.9,21,159.5,34,175.8,44.8 M175.7,0c0.5,0.1,4.2,0.6,8.2,3.1
		c1.5,1.4,3.5,4.7,0.3,11.6c0,0,4.1-5.5,3.1-8.9c3.4,3.5,6.3,8.9,6.4,17.6C193.7,23.4,197.5,1.7,175.7,0 M193,43.1
		c-1.3,0.8-3.5,2.7-7,1.6c0,0,1.4,1.1,3.6,1c-2.8,1.5-5.9,1.8-10.7,0.6c0,0,9.8,5.8,16.6-5.3C195.5,41,193.8,42.6,193,43.1"/>
	<path class="st2" d="M8.4,19.9c0,1.9,0.4,2.4,1.7,2.4v0.5H4.5v-0.5c1.1,0,1.8-0.3,1.8-2.5V7.7H4c-2.1,0-3.1,0.6-3.2,2.3H0.3V6.4
		h0.5C1,6.6,1.3,6.7,1.7,6.8C2,6.9,2.5,6.9,3.2,6.9h8.3c1.4,0,2-0.2,2.5-0.6h0.5V10h-0.3c-0.3-1.3-0.8-2.3-3.3-2.3H8.4V19.9
		 M25.5,20.4c0,1.5,0.3,1.9,1.6,1.9v0.5H22v-0.5c1.3,0,1.6-0.3,1.6-1.6v-4.8c0-1.3-0.8-2.1-2-2.1c-1.1,0-1.9,0.5-2.8,1.8V21
		c0,1,0.4,1.3,1.6,1.3v0.5h-5.2v-0.5c1.5,0,1.7-0.3,1.7-1.9V7.7c0-1.3-0.4-1.5-1.7-1.5V5.8l3.1-0.3h0.5v9.2c1.2-1.4,2.2-2,3.4-2
		c1.6,0,3.3,1.1,3.3,3.4L25.5,20.4 M35.3,16.3c0.1-2.2-1.4-3-2.6-3c-1.6,0-2.6,1.2-2.7,3H35.3z M30,16.8c-0.1,4.4,2.6,5.5,3.9,5.5
		c1.4,0,2-0.5,3.4-2V21c-1.2,1.5-2.3,2.1-4,2.1c-3.1,0-5.3-2.1-5.3-5.1c0-2.9,2.2-5.3,4.9-5.3c2.3,0,4.4,1.8,4.2,4.1L30,16.8
		L30,16.8z M62.6,28.7h-0.7L44.1,6.9h-0.1v17.6c0,2.5,1,3.5,3.3,3.5v0.7h-7.6v-0.7c2.1,0,3.1-0.7,3.1-4.3V9c0-2.8-0.7-4.4-3.7-4.6
		V3.6h6.4l15.7,19.5h0.1V8.5c0-3.3-0.9-4.1-3.1-4.1V3.6h7.6v0.7c-2.4,0-3.2,1-3.2,3.9L62.6,28.7 M85.7,13.2H91v1.1h-5.4v10
		c0,2.1,1.1,3.2,2.8,3.2c1.1,0,2-0.4,2.9-1.5l0.5,0.6c-1.4,1.7-2.9,2.6-4.7,2.6c-2.6,0-4.5-1.8-4.5-4.5V14.3h-2.9v-0.7
		c2.1-1,3.8-2.9,5.2-5.6h0.7L85.7,13.2 M108.7,25.7c0,1.7,0.6,2.2,2.7,2.2v0.7l-5.6,0.3v-2.8h-0.1c-1.5,2-3.3,3-5.4,3
		c-3.1,0-5.1-2.3-5.1-5.2V16c0-1.5-0.5-2.1-2.8-2.1v-0.7l5-0.5h0.7v11.1c0,2.2,1.4,3.5,3.5,3.5c1.5,0,2.8-0.8,4.1-2.5v-8.3
		c0-2.1-0.4-2.4-3-2.4v-0.7l5.2-0.5h0.7L108.7,25.7 M118.3,25.7c0,1.7,0.5,2.2,2.6,2.2v0.7h-8.2v-0.7c2.4,0,2.6-0.6,2.6-3v-8.4
		c0-2.3-0.6-2.5-3.2-2.5v-0.7l5.4-0.5h0.7v3.4c2.9-2.5,4.2-3.4,5.3-3.4c0.9,0,2.1,0.5,2.8,1.2l-1.2,2.8c-1.3-0.7-2.6-1.4-3.7-1.4
		c-1,0-1.9,0.5-3.3,1.9L118.3,25.7 M138.2,18.5c0.1-3.4-2.2-4.8-4.2-4.8c-2.6,0-4.1,1.9-4.3,4.8H138.2z M129.7,19.2
		c-0.1,7,4.1,8.7,6.2,8.7c2.1,0,3.2-0.7,5.5-3.2v1.1c-1.9,2.4-3.7,3.3-6.4,3.3c-4.9,0-8.4-3.4-8.4-8s3.4-8.4,7.8-8.4
		c3.6,0,6.9,2.9,6.7,6.5H129.7L129.7,19.2z M15.9,34.8c-0.9-3.5-2.8-5.1-6.1-5.1c-4.5,0-6.9,3.6-6.9,8.4c0,5.6,2.9,9.3,7.1,9.3
		c2.9,0,5.1-1.4,6.5-4.1l0.5,0.5c-1.2,3-4.2,4.8-7.8,4.8c-4.5,0-9.2-3.1-9.2-9.3C0,33.4,4.1,29,9.7,29c2.4,0,4.1,0.8,5.2,0.8
		c0.5,0,0.8-0.2,1-0.6h0.5v5.6L15.9,34.8 M24.6,37c-2.5,0-3.9,2.2-3.9,5.5c0,3,1.2,5.5,3.9,5.5c2.7,0,3.9-2.7,3.9-5.5
		C28.5,39.6,27.3,37,24.6,37L24.6,37z M24.6,48.6c-3.6,0-6.3-2.6-6.3-6.1c0-3.5,2.7-6.2,6.3-6.2s6.3,2.6,6.3,6.2
		C30.9,46,28.2,48.6,24.6,48.6L24.6,48.6z M44.4,45.7c0,1.5,0.3,2,2,2v0.6h-6.2v-0.6c1.6,0,2-0.4,2-1.4v-6.1c0-1.9-1.3-2.6-2.6-2.6
		c-1.1,0-2.2,0.7-3.3,2.3v5.7c0,1.8,0.2,2.2,2,2.2v0.6h-6.1v-0.6c1.5,0,1.9-0.1,1.9-2.2v-6.5c0-1.4-0.4-1.7-1.9-1.7v-0.6l3.6-0.4
		h0.6v2.3c1.4-1.6,2.7-2.3,4.2-2.3c1.9,0,3.9,1.4,3.9,4.2L44.4,45.7 M53.9,39.9C53.7,38,52.4,37,51.1,37c-1.1,0-1.9,0.6-1.9,1.6
		c0,2.9,6.1,2.2,6.1,6.5c0,1.9-1.7,3.6-3.7,3.6c-1.3,0-2.4-0.9-2.9-0.9c-0.4,0-0.7,0.4-0.8,0.8h-0.6v-4h0.6c0.5,2.4,2.3,3.4,3.7,3.4
		c1.1,0,2-0.9,2-2c0-3.2-6.2-2.4-6.2-6.3c0-1.8,1.6-3.3,3.5-3.3c1.2,0,1.6,0.6,2.4,0.6c0.3,0,0.5-0.2,0.7-0.6h0.6v3.6L53.9,39.9
		 M65.1,40.6c0.1-2.6-1.6-3.6-3.1-3.6c-1.9,0-3.1,1.4-3.2,3.6H65.1z M58.8,41.2c-0.1,5.2,3,6.5,4.6,6.5c1.6,0,2.4-0.6,4.1-2.4v0.8
		c-1.4,1.8-2.8,2.5-4.8,2.5c-3.6,0-6.3-2.5-6.3-6c0-3.5,2.6-6.2,5.8-6.2c2.7,0,5.2,2.2,5,4.8L58.8,41.2L58.8,41.2z M73.1,46
		c0,1.3,0.4,1.6,1.9,1.6v0.6h-6.1v-0.6c1.8,0,2-0.5,2-2.2v-6.3c0-1.7-0.4-1.9-2.4-1.9v-0.6l4.1-0.4h0.6v2.5c2.2-1.9,3.2-2.5,4-2.5
		c0.7,0,1.5,0.4,2.1,0.9l-0.9,2.1c-1-0.5-2-1-2.8-1c-0.8,0-1.4,0.4-2.5,1.4L73.1,46 M86.9,45.4l2.3-5.9c0.6-1.5,0.6-2.2-1.1-2.3
		v-0.6h4.3v0.6c-1.3,0.1-1.7,0.4-2.2,1.7l-3.7,9.6h-0.6L82,39.4c-0.8-1.9-1.1-2.1-2.5-2.2v-0.6h5.6v0.6c-1.1,0.1-1.4,0.7-0.9,2
		L86.9,45.4 M115.3,45.7c0,1.5,0.3,2,2,2v0.6h-6.2v-0.6c1.6,0,2-0.4,2-1.4v-6.1c0-1.9-1.3-2.6-2.6-2.6c-1.1,0-2.2,0.7-3.3,2.3v5.7
		c0,1.8,0.2,2.2,2,2.2v0.6h-6.1v-0.6c1.5,0,1.9-0.1,1.9-2.2v-6.5c0-1.4-0.4-1.7-1.9-1.7v-0.6l3.6-0.4h0.6v2.3
		c1.4-1.6,2.7-2.3,4.2-2.3c1.9,0,3.9,1.4,3.9,4.2L115.3,45.7 M128.2,40.4h-0.6c-0.5-2.1-2-3.4-3.9-3.4c-2.3,0-3.9,2-3.9,4.8
		c0,3.2,2,5.8,4.4,5.8c1.4,0,3.1-0.8,4.3-2.4V46c-1.2,1.7-3,2.6-5.1,2.6c-3.4,0-5.8-2.4-5.8-5.9c0-3.6,2.7-6.4,6-6.4
		c1.7,0,2.7,0.7,3.3,0.7c0.3,0,0.6-0.2,0.8-0.7h0.6L128.2,40.4 M136.5,45.6l2-6.1c0.5-1.4,0.4-2.1-0.9-2.2v-0.6h4.1v0.6
		c-1.2,0-2,0.8-2.7,2.7l-4.6,13.6c-0.9,2.7-2.4,4.2-3.8,4.2c-0.5,0-0.8-0.1-1.4-0.5l0.8-2c0.5,0.2,0.7,0.3,1.1,0.3
		c1.4,0,2.2-0.8,2.9-2.8l1.5-4.2l-4.2-9.6c-0.6-1.3-1-1.7-2.4-1.7v-0.6h5.6v0.6c-0.9,0.1-1.2,0.8-0.8,1.8L136.5,45.6 M74.7,25.5
		c-0.6,1.3-2.3,2-3.2,2c-1.3,0-2.4-1.3-2.4-2.8c0-3.1,2.6-3.1,5.6-4.4L74.7,25.5L74.7,25.5z M77.6,25.3l0-6.9c0-4.2-3-5.7-5.6-5.7
		c-2.8,0-5.1,1.9-5.7,4.8l0.8,0.2c0.7-2.2,2.4-3.3,4.1-3.3c2.2,0,3.5,1.6,3.5,3.8v1.1c-2.5,1.5-8.6,1.3-8.6,5.7c0,2.3,2,4.1,4.4,4.1
		c1.6,0,2.8-0.6,4.3-2.3l0,0v1.9h5.4V28C78.1,28,77.6,27.3,77.6,25.3L77.6,25.3z M98.5,45.9c-0.5,1-1.7,1.5-2.4,1.5
		c-0.9,0-1.7-0.9-1.7-2.1c0-2.3,1.9-2.3,4.1-3.2L98.5,45.9L98.5,45.9z M100.7,45.7l0-5.1c0-3.1-2.2-4.2-4.2-4.2
		c-2.1,0-3.8,1.4-4.2,3.5l0.6,0.2c0.5-1.7,1.7-2.5,3-2.5c1.6,0,2.6,1.2,2.6,2.8v0.8c-1.9,1.1-6.4,1-6.4,4.2c0,1.7,1.5,3,3.3,3
		c1.2,0,2.1-0.5,3.2-1.7l0,0v1.4h4v-0.6C101,47.7,100.7,47.2,100.7,45.7L100.7,45.7z"/>
</g>
</svg>
